<?xml version="1.0" encoding="UTF-8" standalone="no"?>
<svg
   xmlns:dc="http://purl.org/dc/elements/1.1/"
   xmlns:cc="http://web.resource.org/cc/"
   xmlns:rdf="http://www.w3.org/1999/02/22-rdf-syntax-ns#"
   xmlns:svg="http://www.w3.org/2000/svg"
   xmlns="http://www.w3.org/2000/svg"
   xmlns:xlink="http://www.w3.org/1999/xlink"
   xmlns:sodipodi="http://sodipodi.sourceforge.net/DTD/sodipodi-0.dtd"
   xmlns:inkscape="http://www.inkscape.org/namespaces/inkscape"
   width="125"
   height="120"
   id="svg2"
   version="1.0">
  <defs
     id="defs4">
    <linearGradient
       id="linearGradient6558">
      <stop
         style="stop-color:#575757;stop-opacity:1;"
         offset="0"
         id="stop6560" />
      <stop
         style="stop-color:#2f2f2f;stop-opacity:1;"
         offset="1"
         id="stop6562" />
    </linearGradient>
    <radialGradient
       inkscape:collect="always"
       xlink:href="#linearGradient6558"
       id="radialGradient6564"
       cx="61.297766"
       cy="60.910986"
       fx="61.297766"
       fy="60.910986"
       r="44.688254"
       gradientTransform="matrix(1,0,0,0.945104,0,3.343747)"
       gradientUnits="userSpaceOnUse" />
    <radialGradient
       inkscape:collect="always"
       xlink:href="#linearGradient6558"
       id="radialGradient6580"
       gradientUnits="userSpaceOnUse"
       gradientTransform="matrix(1,0,0,0.945104,0.355158,3.334402)"
       cx="61.297766"
       cy="60.910986"
       fx="61.297766"
       fy="60.910986"
       r="44.688254" />
    <linearGradient
       inkscape:collect="always"
       xlink:href="#linearGradient6558"
       id="linearGradient4173"
       x1="255.15521"
       y1="32.347946"
       x2="279.8912"
       y2="32.347946"
       gradientUnits="userSpaceOnUse"
       gradientTransform="matrix(0.8073249,0,0,0.8073249,57.960878,7.4036303)" />
    <linearGradient
       inkscape:collect="always"
       xlink:href="#linearGradient6558"
       id="linearGradient5145"
       gradientUnits="userSpaceOnUse"
       gradientTransform="matrix(0.7902775,0,0,0.82474,60.019977,8.0684132)"
       x1="255.15521"
       y1="32.347946"
       x2="279.8912"
       y2="32.347946" />
  </defs>
  <g id="layer1">
    <path
       style="fill:url(#radialGradient6564);fill-opacity:1.0;fill-rule:evenodd;stroke:#323232;stroke-width:1;stroke-linecap:butt;stroke-linejoin:miter;stroke-opacity:1;stroke-miterlimit:4;stroke-dasharray:none"
       d="M 105.45673,18.675923 C 105.45673,18.675923 88.211949,26.918461 74.172834,28.737898 C 60.133727,30.557333 33.360434,32.377571 28.045622,31.093256 C 22.730818,29.808941 18.915645,28.309196 18.915645,28.309196 L 20.021441,32.056583 L 16.609513,35.052471 L 17.2144,36.121726 L 18.61792,36.22764 L 22.92773,36.762252 L 23.532621,38.688909 L 25.937975,38.905784 L 27.143021,42.970927 C 27.143021,42.970927 32.254764,43.399628 33.758953,43.399628 C 35.263142,43.399628 38.271966,43.187802 38.271966,43.187802 L 38.371202,44.791657 L 39.477002,45.003495 L 39.477002,46.824227 L 37.066917,48.967759 L 37.671807,49.073671 L 37.671807,49.820127 C 37.671807,49.820127 32.255457,50.252157 30.049301,49.93109 C 27.843157,49.610006 27.440747,49.608286 27.440747,49.608286 L 27.242258,49.820127 L 27.143021,50.783455 L 27.643946,50.783455 L 27.84242,54.959544 L 38.976091,54.530844 L 38.172728,68.980747 L 38.073481,70.796442 L 28.645781,70.261816 L 28.546544,66.408513 L 30.649462,66.408513 L 30.852673,64.910557 L 32.757107,64.481857 L 33.059555,64.058192 L 25.937975,62.343374 L 20.522364,63.947229 L 21.42496,64.698732 L 22.327572,64.698732 L 22.426809,65.984848 L 24.331254,66.09076 L 24.331254,69.838147 L 22.228335,70.372777 L 22.630009,71.225146 L 23.130934,71.547931 L 23.130934,74.437917 L 24.435218,74.437917 L 24.435218,87.813529 L 22.327572,88.13632 L 22.630009,91.989617 L 23.929569,92.206492 L 23.731093,100.98236 L 29.449141,101.08826 L 28.244105,92.418334 L 36.868446,92.206492 L 36.268285,96.912181 L 35.464925,100.23086 L 44.188501,100.33677 L 44.287739,91.777793 L 50.303506,91.243181 L 50.005786,96.700351 L 49.802585,99.90807 L 54.920484,99.90807 L 54.717274,91.132217 L 55.421397,91.243181 L 55.619882,87.067076 L 54.816521,87.067076 L 54.518798,85.352258 L 54.017874,80.429702 L 54.216359,74.760706 L 55.31743,74.760706 L 55.31743,71.336105 L 53.913913,71.442015 L 54.117112,67.402096 L 55.747469,67.240708 L 55.823083,65.929374 L 56.749319,65.793192 L 57.699176,65.071956 L 51.985842,63.896802 L 46.31977,65.15265 L 46.872668,66.060507 L 47.47283,66.010066 L 48.172228,65.984848 L 48.299828,67.639144 L 49.878196,67.563497 L 49.906548,71.144447 L 43.111042,70.988097 L 43.337879,67.160002 L 43.559978,63.679927 L 43.559978,59.105378 L 43.763188,54.288748 L 57.373101,53.592733 L 73.567955,52.659674 L 73.71917,55.736265 L 73.142647,63.120082 L 72.892183,69.9945 L 66.928387,69.888585 L 66.900039,65.071956 L 69.106918,64.991267 L 69.206169,63.629486 L 70.108765,63.493308 L 70.061506,63.226006 L 70.964116,63.175568 L 71.465028,62.504773 L 64.721507,60.926122 L 58.001612,62.368592 L 58.4789,63.200785 L 59.230285,63.1453 L 59.230285,63.523577 L 60.156518,63.523577 L 60.156518,65.046738 L 62.136575,65.071956 L 62.112937,69.298485 L 60.109259,69.298485 L 60.080907,70.261816 L 60.785031,70.342507 L 60.70942,74.009202 L 62.188552,74.089909 L 62.013701,88.620507 L 60.057282,89.018952 L 60.080907,89.714967 L 60.761406,89.714967 L 60.761406,93.437137 L 61.886113,93.437137 L 61.588391,98.52109 L 61.210343,102.95945 L 68.331912,103.14605 L 68.105084,99.29275 L 67.580538,96.085028 L 67.476575,93.300955 L 73.520696,93.195041 L 73.345845,97.502272 L 73.317494,102.05159 L 76.729426,102.3189 L 81.3653,102.1323 L 82.820807,101.70358 L 82.017437,99.26753 L 81.818959,95.439438 L 81.440912,92.710853 L 87.206218,92.499027 L 86.955759,95.842931 L 86.932133,101.08826 L 89.238253,101.30009 L 91.520751,101.24965 L 92.621828,100.90165 L 91.969693,95.923633 L 91.747577,92.176239 L 92.725793,92.070324 L 92.749427,88.726422 L 93.02352,88.670945 L 92.976244,87.949712 L 91.846823,87.949712 L 91.619996,85.488427 L 91.520751,74.811143 L 92.371377,74.785924 L 92.371377,71.280616 L 92.725793,71.336105 L 92.725793,70.640088 L 91.468773,70.529127 L 91.497126,66.463987 L 93.600043,66.277382 L 93.477182,64.910557 L 94.403419,64.829863 L 94.351424,64.562549 L 95.580099,63.947229 L 89.337489,62.69138 L 82.995657,63.977495 L 83.39733,64.723951 L 84.375543,64.643256 L 84.427528,64.966046 L 85.254515,64.966046 L 85.301775,66.569901 L 87.357445,66.544681 L 87.532293,70.478688 L 80.264217,70.423216 L 79.413593,64.512124 L 78.733106,61.380041 L 78.184923,55.761484 L 78.510996,52.473053 L 92.999878,51.373557 L 93.047136,46.476221 L 93.774891,46.289613 L 93.727651,45.543159 L 93.174743,45.220372 C 93.174629,45.220372 85.252181,46.395266 82.745197,46.66284 C 82.0389,46.738209 82.09239,46.733258 81.516524,46.79397 L 81.440912,45.886118 L 78.444837,44.317564 L 78.482644,42.491786 L 79.512842,42.461518 L 79.588444,39.949808 C 79.588444,39.949808 85.728225,39.546834 88.009582,39.0117 C 90.290937,38.476559 93.524432,37.942456 93.524432,37.942456 L 95.055545,33.79662 L 98.089437,32.913987 L 98.339888,32.217972 L 105.20628,30.316548 L 105.98602,29.676006 L 103.37744,23.976741 L 103.62792,22.690624 L 104.95584,21.994611 L 105.91041,19.079404 L 105.45673,18.675923 z M 72.466874,40.403728 L 72.429067,42.476654 L 73.983813,42.542211 L 73.884576,44.509221 L 70.836515,46.506487 L 70.647496,47.081457 L 71.876167,47.091543 L 71.866712,47.575729 L 62.552432,48.029652 L 62.613863,46.652742 L 63.039175,45.966809 L 63.067524,45.528025 L 63.07698,44.579832 L 63.341609,43.949374 L 63.440849,43.439982 L 63.440849,43.076841 L 63.842533,41.47297 L 72.466874,40.403728 z M 52.987688,42.168984 L 52.760853,43.561027 L 53.488599,44.418431 L 53.441349,45.916386 L 54.117112,46.960408 L 53.942262,48.191039 L 54.443185,48.912273 L 44.939872,49.2855 L 44.916247,48.967759 L 46.017333,48.831579 L 46.069307,48.428097 L 43.66394,47.121797 L 43.536351,45.03375 L 44.689411,44.978276 L 44.788661,42.72883 L 52.987688,42.168984 z M 67.051262,74.276518 L 72.81657,74.649742 L 72.618099,82.411833 L 73.36947,88.776857 L 67.254465,88.565018 L 67.051262,74.276518 z M 28.44258,74.599304 L 37.671807,75.078442 L 36.868446,80.429702 L 36.868446,84.928593 L 37.520583,87.440302 L 28.494569,87.869006 L 28.44258,74.599304 z M 87.508658,74.649742 L 87.508658,87.924488 L 81.644113,88.353194 L 81.440912,81.342592 L 80.788764,74.811143 L 87.508658,74.649742 z M 43.087416,74.947312 L 49.906548,74.972531 L 49.977434,87.278902 L 43.611966,87.389863 L 43.285891,83.400379 L 43.262266,79.441156 L 43.087416,74.947312 z "
       id="path4735" />
  </g>
</svg>
