<svg version="1.1" id="layer" xmlns="http://www.w3.org/2000/svg" xmlns:xlink="http://www.w3.org/1999/xlink" x="0px" y="0px"
	 viewBox="0 0 652 652" style="enable-background:new 0 0 652 652;" xml:space="preserve">
<style type="text/css">
	.st0{fill:#FFB600;}
	.st1{fill:none;stroke:#FFB600;stroke-width:2.1696;stroke-miterlimit:10;}
	.st2{fill:#0E1821;}
</style>
<rect x="78.5" y="273.4" class="st0" width="48" height="48"/>
<rect x="78.5" y="273.4" class="st1" width="48" height="48"/>
<path class="st0" d="M69.1,330.7h-48v48h48V330.7z M53.2,362.7h-16v-16h16V362.7z"/>
<path class="st1" d="M69.1,330.7h-48v48h48V330.7z M53.2,362.7h-16v-16h16V362.7z"/>
<rect x="61" y="243.4" transform="matrix(0.7071 -0.7071 0.7071 0.7071 -166.3894 126.0302)" class="st0" width="15.8" height="40.9"/>
<rect x="61" y="243.4" transform="matrix(0.7071 -0.7071 0.7071 0.7071 -166.3894 126.0302)" class="st1" width="15.8" height="40.9"/>
<rect x="60.2" y="318.2" transform="matrix(0.7071 -0.7071 0.7071 0.7071 -208.9245 147.6828)" class="st0" width="27.3" height="15.7"/>
<rect x="60.2" y="318.2" transform="matrix(0.7071 -0.7071 0.7071 0.7071 -208.9245 147.6828)" class="st1" width="27.3" height="15.7"/>
<path class="st0" d="M69.1,216.1h-48v48h48V216.1z M53.2,248.1h-16v-16h16V248.1z"/>
<path class="st1" d="M69.1,216.1h-48v48h48V216.1z M53.2,248.1h-16v-16h16V248.1z"/>
<g>
	<path class="st2" d="M180.9,373.4c2.6,5.4,8.3,9,14.6,9c11.6,0,18.6-9.4,18.6-21.7c0-12.5-6.9-21.8-18.6-21.8c-6.4,0-12,3.8-14.6,9
		V373.4z M180.9,428h-21.5V321.9h21.5v6.4c3.5-4.2,11.1-8.1,19.4-8.1c22.5,0,35.4,18.7,35.4,40.6c0,21.8-12.8,40.4-35.4,40.4
		c-8.3,0-16-4-19.4-8.1V428z"/>
	<path class="st2" d="M313.7,399.4h-21.5v-7.1c-4.3,4.9-11.8,8.8-20.8,8.8c-17.3,0-27.2-11.4-27.2-28.6v-50.6h21.5v46.3
		c0,8.2,4,13.7,12.5,13.7c6.6,0,12.3-4,13.9-10.7v-49.2h21.7V399.4z"/>
	<path class="st2" d="M349.5,373.4c2.6,5.4,8.3,9,14.6,9c11.6,0,18.6-9.4,18.6-21.7c0-12.5-6.9-21.8-18.6-21.8c-6.4,0-12,3.8-14.6,9
		V373.4z M349.5,428H328V321.9h21.5v6.4c3.5-4.2,11.1-8.1,19.4-8.1c22.5,0,35.4,18.7,35.4,40.6c0,21.8-12.8,40.4-35.4,40.4
		c-8.3,0-16-4-19.4-8.1V428z"/>
	<path class="st2" d="M435.1,373.4c2.6,5.4,8.3,9,14.6,9c11.6,0,18.6-9.4,18.6-21.7c0-12.5-6.9-21.8-18.6-21.8c-6.4,0-12,3.8-14.6,9
		V373.4z M435.1,428h-21.5V321.9h21.5v6.4c3.5-4.2,11.1-8.1,19.4-8.1c22.5,0,35.4,18.7,35.4,40.6c0,21.8-12.8,40.4-35.4,40.4
		c-8.3,0-16-4-19.4-8.1V428z"/>
	<path class="st2" d="M516.5,352.2h30c-0.2-8.2-5-14.6-13.9-14.6C524.3,337.6,518.4,342.7,516.5,352.2 M567.1,374.1
		c-2.8,16.5-14.9,27.1-34.3,27.1c-22.5,0-37.6-16.5-37.6-40.4c0-23.4,15.6-40.6,37.3-40.6c22.7,0,35.2,15.8,35.2,38.5v6.6h-51.7
		c0.7,11.6,7.3,18.6,16.8,18.6c7.3,0,12.7-3.1,14.4-9.7H567.1z"/>
	<path class="st2" d="M581.7,339.2h-11.8v-17.3h11.8v-21H603v21h17v17.3h-17v34c0,6.1,3.3,8.8,8.8,8.8c3.3,0,6.9-1,9.4-2.6v19.1
		c-2.9,1.6-8.2,2.4-13.9,2.4c-15.8,0-25.7-7.8-25.7-25V339.2z"/>
</g>
</svg>
